<svg xmlns="http://www.w3.org/2000/svg" enable-background="new 0 0 50 50" viewBox="0 0 50 50" id="villa"><pattern id="a" width="8.814" height="8.814" x="-70" y="-350" overflow="visible" patternUnits="userSpaceOnUse" viewBox="0 -8.814 8.814 8.814"><polygon fill="none" points="0 0 8.814 0 8.814 -8.814 0 -8.814"></polygon><polygon fill="#88603F" points="8.814 0 0 0 0 -8.814 8.814 -8.814"></polygon></pattern><path fill="#EEEDED" d="M10.644 9.3337h-7.66c-1.09 0-1.98-.7711-1.98-1.7174 0-.7945.6201-1.4721 1.48-1.659-.3182-1.2385 1.0702-2.2264 2.22-1.9161.6643-1.4718 3.0341-1.4189 3.66.0117 1.2383-.5034 2.8465.4203 2.44 1.8459C13.3023 6.0721 13.1515 9.3337 10.644 9.3337zM48.996 15.5718c0 .6405-.6959 1.1624-1.5579 1.1624h-6.0575c-.862 0-1.5658-.5219-1.5658-1.1624 0-.5377.4903-.9964 1.1704-1.1229-.2632-.8767.895-1.4957 1.7555-1.2969.5265-.9985 2.4018-.9555 2.8943.0079.9308-.3239 2.2645.244 1.9295 1.2494C48.3633 14.4568 48.996 14.955 48.996 15.5718z"></path><polygon fill="url(#a)" points="47.044 18.87 3.124 18.87 9.954 12.39 40.204 12.39"></polygon><rect width="43.923" height="24.562" x="3.121" y="18.868" fill="#EEEDED"></rect><rect width="2.344" height="2.53" x="4.482" y="21.009" fill="#4A8BC9"></rect><path fill="#FFF" d="M6.9125,23.6252H4.3957v-2.7028h2.5168V23.6252z M4.568,23.4529h2.172v-2.3581H4.568V23.4529z"></path><rect width="2.344" height="2.53" x="4.482" y="23.539" fill="#4A8BC9"></rect><path fill="#FFF" d="M6.9125,26.1557H4.3957v-2.7028h2.5168V26.1557z M4.568,25.9833h2.172v-2.3581H4.568V25.9833z"></path><rect width="2.344" height="2.53" x="4.482" y="26.07" fill="#4A8BC9"></rect><path fill="#FFF" d="M6.9125,28.6861H4.3957v-2.7028h2.5168V28.6861z M4.568,28.5138h2.172v-2.3581H4.568V28.5138z"></path><rect width="2.344" height="2.53" x="6.826" y="21.009" fill="#4A8BC9"></rect><path fill="#FFF" d="M9.2569,23.6252H6.7401v-2.7028h2.5168V23.6252z M6.9125,23.4529h2.172v-2.3581h-2.172V23.4529z"></path><rect width="2.344" height="2.53" x="6.826" y="23.539" fill="#4A8BC9"></rect><path fill="#FFF" d="M9.2569,26.1557H6.7401v-2.7028h2.5168V26.1557z M6.9125,25.9833h2.172v-2.3581h-2.172V25.9833z"></path><rect width="2.344" height="2.53" x="6.826" y="26.07" fill="#4A8BC9"></rect><path fill="#FFF" d="M9.2569,28.6861H6.7401v-2.7028h2.5168V28.6861z M6.9125,28.5138h2.172v-2.3581h-2.172V28.5138z"></path><rect width="2.344" height="2.53" x="11.124" y="21.009" fill="#4A8BC9"></rect><path fill="#FFF" d="M13.5545,23.6252h-2.5168v-2.7028h2.5168V23.6252z M11.2101,23.4529h2.172v-2.3581h-2.172V23.4529z"></path><rect width="2.344" height="2.53" x="11.124" y="23.539" fill="#4A8BC9"></rect><path fill="#FFF" d="M13.5545,26.1557h-2.5168v-2.7028h2.5168V26.1557z M11.2101,25.9833h2.172v-2.3581h-2.172V25.9833z"></path><rect width="2.344" height="2.53" x="11.124" y="26.07" fill="#4A8BC9"></rect><path fill="#FFF" d="M13.5545,28.6861h-2.5168v-2.7028h2.5168V28.6861z M11.2101,28.5138h2.172v-2.3581h-2.172V28.5138z"></path><rect width="2.344" height="2.53" x="13.468" y="21.009" fill="#4A8BC9"></rect><path fill="#FFF" d="M15.8989,23.6252h-2.5168v-2.7028h2.5168V23.6252z M13.5545,23.4529h2.172v-2.3581h-2.172V23.4529z"></path><rect width="2.344" height="2.53" x="13.468" y="23.539" fill="#4A8BC9"></rect><path fill="#FFF" d="M15.8989,26.1557h-2.5168v-2.7028h2.5168V26.1557z M13.5545,25.9833h2.172v-2.3581h-2.172V25.9833z"></path><rect width="2.344" height="2.53" x="13.468" y="26.07" fill="#4A8BC9"></rect><path fill="#FFF" d="M15.8989,28.6861h-2.5168v-2.7028h2.5168V28.6861z M13.5545,28.5138h2.172v-2.3581h-2.172V28.5138z"></path><rect width="2.344" height="2.53" x="4.482" y="32.487" fill="#4A8BC9"></rect><path fill="#FFF" d="M6.9125,35.1035H4.3957v-2.7028h2.5168V35.1035z M4.568,34.9311h2.172v-2.3581H4.568V34.9311z"></path><rect width="2.344" height="2.53" x="4.482" y="35.017" fill="#4A8BC9"></rect><path fill="#FFF" d="M6.9125,37.634H4.3957v-2.7028h2.5168V37.634z M4.568,37.4616h2.172v-2.3581H4.568V37.4616z"></path><rect width="2.344" height="2.53" x="4.482" y="37.548" fill="#4A8BC9"></rect><path fill="#FFF" d="M6.9125,40.1644H4.3957v-2.7028h2.5168V40.1644z M4.568,39.992h2.172V37.634H4.568V39.992z"></path><rect width="2.344" height="2.53" x="6.826" y="32.487" fill="#4A8BC9"></rect><path fill="#FFF" d="M9.2569,35.1035H6.7401v-2.7028h2.5168V35.1035z M6.9125,34.9311h2.172v-2.3581h-2.172V34.9311z"></path><rect width="2.344" height="2.53" x="6.826" y="35.017" fill="#4A8BC9"></rect><path fill="#FFF" d="M9.2569,37.634H6.7401v-2.7028h2.5168V37.634z M6.9125,37.4616h2.172v-2.3581h-2.172V37.4616z"></path><rect width="2.344" height="2.53" x="6.826" y="37.548" fill="#4A8BC9"></rect><path fill="#FFF" d="M9.2569,40.1644H6.7401v-2.7028h2.5168V40.1644z M6.9125,39.992h2.172V37.634h-2.172V39.992z"></path><rect width="2.344" height="2.53" x="11.124" y="32.487" fill="#4A8BC9"></rect><path fill="#FFF" d="M13.5545,35.1035h-2.5168v-2.7028h2.5168V35.1035z M11.2101,34.9311h2.172v-2.3581h-2.172V34.9311z"></path><rect width="2.344" height="2.53" x="11.124" y="35.017" fill="#4A8BC9"></rect><path fill="#FFF" d="M13.5545,37.634h-2.5168v-2.7028h2.5168V37.634z M11.2101,37.4616h2.172v-2.3581h-2.172V37.4616z"></path><rect width="2.344" height="2.53" x="11.124" y="37.548" fill="#4A8BC9"></rect><path fill="#FFF" d="M13.5545,40.1644h-2.5168v-2.7028h2.5168V40.1644z M11.2101,39.992h2.172V37.634h-2.172V39.992z"></path><rect width="2.344" height="2.53" x="13.468" y="32.487" fill="#4A8BC9"></rect><path fill="#FFF" d="M15.8989,35.1035h-2.5168v-2.7028h2.5168V35.1035z M13.5545,34.9311h2.172v-2.3581h-2.172V34.9311z"></path><rect width="2.344" height="2.53" x="13.468" y="35.017" fill="#4A8BC9"></rect><path fill="#FFF" d="M15.8989,37.634h-2.5168v-2.7028h2.5168V37.634z M13.5545,37.4616h2.172v-2.3581h-2.172V37.4616z"></path><rect width="2.344" height="2.53" x="13.468" y="37.548" fill="#4A8BC9"></rect><path fill="#FFF" d="M15.8989,40.1644h-2.5168v-2.7028h2.5168V40.1644z M13.5545,39.992h2.172V37.634h-2.172V39.992z"></path><rect width="2.344" height="2.53" x="34.273" y="21.009" fill="#4A8BC9"></rect><path fill="#FFF" d="M36.7035,23.6252h-2.5168v-2.7028h2.5168V23.6252z M34.3591,23.4529h2.172v-2.3581h-2.172V23.4529z"></path><rect width="2.344" height="2.53" x="34.273" y="23.539" fill="#4A8BC9"></rect><path fill="#FFF" d="M36.7035,26.1557h-2.5168v-2.7028h2.5168V26.1557z M34.3591,25.9833h2.172v-2.3581h-2.172V25.9833z"></path><rect width="2.344" height="2.53" x="34.273" y="26.07" fill="#4A8BC9"></rect><path fill="#FFF" d="M36.7035,28.6861h-2.5168v-2.7028h2.5168V28.6861z M34.3591,28.5138h2.172v-2.3581h-2.172V28.5138z"></path><rect width="2.344" height="2.53" x="36.617" y="21.009" fill="#4A8BC9"></rect><path fill="#FFF" d="M39.0479,23.6252h-2.5168v-2.7028h2.5168V23.6252z M36.7035,23.4529h2.1721v-2.3581h-2.1721V23.4529z"></path><rect width="2.344" height="2.53" x="36.617" y="23.539" fill="#4A8BC9"></rect><path fill="#FFF" d="M39.0479,26.1557h-2.5168v-2.7028h2.5168V26.1557z M36.7035,25.9833h2.1721v-2.3581h-2.1721V25.9833z"></path><rect width="2.344" height="2.53" x="36.617" y="26.07" fill="#4A8BC9"></rect><path fill="#FFF" d="M39.0479,28.6861h-2.5168v-2.7028h2.5168V28.6861z M36.7035,28.5138h2.1721v-2.3581h-2.1721V28.5138z"></path><rect width="2.344" height="2.53" x="40.915" y="21.009" fill="#4A8BC9"></rect><path fill="#FFF" d="M43.3455,23.6252h-2.5168v-2.7028h2.5168V23.6252z M41.0011,23.4529h2.172v-2.3581h-2.172V23.4529z"></path><rect width="2.344" height="2.53" x="40.915" y="23.539" fill="#4A8BC9"></rect><path fill="#FFF" d="M43.3455,26.1557h-2.5168v-2.7028h2.5168V26.1557z M41.0011,25.9833h2.172v-2.3581h-2.172V25.9833z"></path><rect width="2.344" height="2.53" x="40.915" y="26.07" fill="#4A8BC9"></rect><path fill="#FFF" d="M43.3455,28.6861h-2.5168v-2.7028h2.5168V28.6861z M41.0011,28.5138h2.172v-2.3581h-2.172V28.5138z"></path><rect width="2.344" height="2.53" x="43.259" y="21.009" fill="#4A8BC9"></rect><path fill="#FFF" d="M45.6899,23.6252h-2.5168v-2.7028h2.5168V23.6252z M43.3455,23.4529h2.172v-2.3581h-2.172V23.4529z"></path><rect width="2.344" height="2.53" x="43.259" y="23.539" fill="#4A8BC9"></rect><path fill="#FFF" d="M45.6899,26.1557h-2.5168v-2.7028h2.5168V26.1557z M43.3455,25.9833h2.172v-2.3581h-2.172V25.9833z"></path><rect width="2.344" height="2.53" x="43.259" y="26.07" fill="#4A8BC9"></rect><path fill="#FFF" d="M45.6899,28.6861h-2.5168v-2.7028h2.5168V28.6861z M43.3455,28.5138h2.172v-2.3581h-2.172V28.5138z"></path><rect width="1.87" height="2.53" x="20.477" y="21.009" fill="#4A8BC9"></rect><path fill="#FFF" d="M22.4332,23.6252h-2.0424v-2.7028h2.0424V23.6252z M20.5632,23.4529h1.6976v-2.3581h-1.6976V23.4529z"></path><rect width="1.87" height="2.53" x="20.477" y="23.539" fill="#4A8BC9"></rect><path fill="#FFF" d="M22.4332,26.1557h-2.0424v-2.7028h2.0424V26.1557z M20.5632,25.9833h1.6976v-2.3581h-1.6976V25.9833z"></path><rect width="1.87" height="2.53" x="20.477" y="26.07" fill="#4A8BC9"></rect><path fill="#FFF" d="M22.4332,28.6861h-2.0424v-2.7028h2.0424V28.6861z M20.5632,28.5138h1.6976v-2.3581h-1.6976V28.5138z"></path><rect width="1.87" height="2.53" x="22.347" y="21.009" fill="#4A8BC9"></rect><path fill="#FFF" d="M24.3032,23.6252h-2.0423v-2.7028h2.0423V23.6252z M22.4332,23.4529h1.6976v-2.3581h-1.6976V23.4529z"></path><rect width="1.87" height="2.53" x="22.347" y="23.539" fill="#4A8BC9"></rect><path fill="#FFF" d="M24.3032,26.1557h-2.0423v-2.7028h2.0423V26.1557z M22.4332,25.9833h1.6976v-2.3581h-1.6976V25.9833z"></path><rect width="1.87" height="2.53" x="22.347" y="26.07" fill="#4A8BC9"></rect><path fill="#FFF" d="M24.3032,28.6861h-2.0423v-2.7028h2.0423V28.6861z M22.4332,28.5138h1.6976v-2.3581h-1.6976V28.5138z"></path><rect width="1.87" height="2.53" x="25.775" y="21.009" fill="#4A8BC9"></rect><path fill="#FFF" d="M27.7311,23.6252h-2.0423v-2.7028h2.0423V23.6252z M25.8611,23.4529h1.6976v-2.3581h-1.6976V23.4529z"></path><rect width="1.87" height="2.53" x="25.775" y="23.539" fill="#4A8BC9"></rect><path fill="#FFF" d="M27.7311,26.1557h-2.0423v-2.7028h2.0423V26.1557z M25.8611,25.9833h1.6976v-2.3581h-1.6976V25.9833z"></path><rect width="1.87" height="2.53" x="25.775" y="26.07" fill="#4A8BC9"></rect><path fill="#FFF" d="M27.7311,28.6861h-2.0423v-2.7028h2.0423V28.6861z M25.8611,28.5138h1.6976v-2.3581h-1.6976V28.5138z"></path><rect width="1.87" height="2.53" x="27.645" y="21.009" fill="#4A8BC9"></rect><path fill="#FFF" d="M29.6011,23.6252h-2.0424v-2.7028h2.0424V23.6252z M27.7311,23.4529h1.6976v-2.3581h-1.6976V23.4529z"></path><rect width="1.87" height="2.53" x="27.645" y="23.539" fill="#4A8BC9"></rect><path fill="#FFF" d="M29.6011,26.1557h-2.0424v-2.7028h2.0424V26.1557z M27.7311,25.9833h1.6976v-2.3581h-1.6976V25.9833z"></path><rect width="1.87" height="2.53" x="27.645" y="26.07" fill="#4A8BC9"></rect><path fill="#FFF" d="M29.6011,28.6861h-2.0424v-2.7028h2.0424V28.6861z M27.7311,28.5138h1.6976v-2.3581h-1.6976V28.5138z"></path><rect width="2.344" height="2.53" x="34.273" y="32.487" fill="#4A8BC9"></rect><path fill="#FFF" d="M36.7035,35.1035h-2.5168v-2.7028h2.5168V35.1035z M34.3591,34.9311h2.172v-2.3581h-2.172V34.9311z"></path><rect width="2.344" height="2.53" x="34.273" y="35.017" fill="#4A8BC9"></rect><path fill="#FFF" d="M36.7035,37.634h-2.5168v-2.7028h2.5168V37.634z M34.3591,37.4616h2.172v-2.3581h-2.172V37.4616z"></path><rect width="2.344" height="2.53" x="34.273" y="37.548" fill="#4A8BC9"></rect><path fill="#FFF" d="M36.7035,40.1644h-2.5168v-2.7028h2.5168V40.1644z M34.3591,39.992h2.172V37.634h-2.172V39.992z"></path><rect width="2.344" height="2.53" x="36.617" y="32.487" fill="#4A8BC9"></rect><path fill="#FFF" d="M39.0479,35.1035h-2.5168v-2.7028h2.5168V35.1035z M36.7035,34.9311h2.1721v-2.3581h-2.1721V34.9311z"></path><rect width="2.344" height="2.53" x="36.617" y="35.017" fill="#4A8BC9"></rect><path fill="#FFF" d="M39.0479,37.634h-2.5168v-2.7028h2.5168V37.634z M36.7035,37.4616h2.1721v-2.3581h-2.1721V37.4616z"></path><rect width="2.344" height="2.53" x="36.617" y="37.548" fill="#4A8BC9"></rect><path fill="#FFF" d="M39.0479,40.1644h-2.5168v-2.7028h2.5168V40.1644z M36.7035,39.992h2.1721V37.634h-2.1721V39.992z"></path><rect width="2.344" height="2.53" x="40.915" y="32.487" fill="#4A8BC9"></rect><path fill="#FFF" d="M43.3455,35.1035h-2.5168v-2.7028h2.5168V35.1035z M41.0011,34.9311h2.172v-2.3581h-2.172V34.9311z"></path><rect width="2.344" height="2.53" x="40.915" y="35.017" fill="#4A8BC9"></rect><path fill="#FFF" d="M43.3455,37.634h-2.5168v-2.7028h2.5168V37.634z M41.0011,37.4616h2.172v-2.3581h-2.172V37.4616z"></path><rect width="2.344" height="2.53" x="40.915" y="37.548" fill="#4A8BC9"></rect><path fill="#FFF" d="M43.3455,40.1644h-2.5168v-2.7028h2.5168V40.1644z M41.0011,39.992h2.172V37.634h-2.172V39.992z"></path><rect width="2.344" height="2.53" x="43.259" y="32.487" fill="#4A8BC9"></rect><path fill="#FFF" d="M45.6899,35.1035h-2.5168v-2.7028h2.5168V35.1035z M43.3455,34.9311h2.172v-2.3581h-2.172V34.9311z"></path><rect width="2.344" height="2.53" x="43.259" y="35.017" fill="#4A8BC9"></rect><path fill="#FFF" d="M45.6899,37.634h-2.5168v-2.7028h2.5168V37.634z M43.3455,37.4616h2.172v-2.3581h-2.172V37.4616z"></path><rect width="2.344" height="2.53" x="43.259" y="37.548" fill="#4A8BC9"></rect><path fill="#FFF" d="M45.6899,40.1644h-2.5168v-2.7028h2.5168V40.1644z M43.3455,39.992h2.172V37.634h-2.172V39.992z"></path><path fill="#EE7373" d="M28.8442,43.4301h-7.6115l0-11.9447c2.4111-1.4747,4.9544-1.4038,7.6115,0L28.8442,43.4301z"></path><path fill="#D25C59" d="M28.1304,33.1037v-1.2375c-1.1199-0.5394-2.2052-0.8125-3.2311-0.8125
				c-1.0213,0-1.9907,0.2576-2.9528,0.7861v1.2639H28.1304z"></path><rect width="4.603" height="8.941" x="22.737" y="34.489" fill="#D25C59"></rect><rect width="8.506" height=".432" x="20.829" y="33.581" fill="#D25C59"></rect><rect width=".799" height="24.562" x="32.036" y="18.868" fill="#D2D2D2"></rect><rect width=".799" height="24.562" x="17.157" y="18.868" fill="#D2D2D2"></rect><path fill="#9CCC65" d="M48.9045,43.9223v2.6291c0,0.2707-0.2195,0.4902-0.4902,0.4902H1.5445
				c-0.2707,0-0.4902-0.2195-0.4902-0.4902v-2.6291c0-0.2707,0.2195-0.4902,0.4902-0.4902h46.8698
				C48.685,43.4321,48.9045,43.6516,48.9045,43.9223z"></path><path fill="#8EC163" d="M9.4028,43.7278c-0.3195,0-0.599-0.1298-0.7787-0.3195c-0.2157,0.0784-0.597,0.0761-0.9284-0.0799
				c-0.2696,0.2496-0.6489,0.3993-1.0782,0.3993c-0.7986,0-1.4475-0.5291-1.4475-1.168c0-1.0217,1.5044-1.5346,2.4159-0.8685
				c0.6807-0.3745,1.5251-0.1287,1.8069,0.4193h0.01C10.7297,42.1105,10.7191,43.7278,9.4028,43.7278z"></path><path fill="#7BA452" d="M10.3764,43.0558c-0.0499,0.3394-0.3594,0.599-0.6888,0.6789c-0.3594,0.0998-0.7886,0.0399-1.0781-0.2296
				c-0.13,0.0173-0.5286,0.1186-0.8985-0.0399c-0.4392,0.3494-1.0382,0.4093-1.5473,0.2696
				c-0.5191-0.1498-0.9983-0.589-0.9983-1.1481c0.0499,0.5391,0.5391,0.9284,1.0282,1.0282
				c0.5091,0.1099,1.0682-0.0199,1.4176-0.3793l0.0599-0.0599c0.1007,0.0294,0.2961,0.2472,0.9983,0.1497
				c0.1033,0.0646,0.3278,0.4598,0.9983,0.3295C9.9771,43.6049,10.2965,43.3852,10.3764,43.0558z"></path><path fill="#8EC163" d="M44.5229,42.9191c0,0.758-1.1906,1.1082-1.777,0.4892c-0.2157,0.0784-0.597,0.0761-0.9284-0.0799
				c-0.2696,0.2496-0.6489,0.3993-1.0782,0.3993c-0.7986,0-1.4475-0.5291-1.4475-1.168c0-1.0217,1.5044-1.5346,2.4159-0.8685
				c0.6807-0.3745,1.5251-0.1287,1.8069,0.4193C43.6148,42.1462,44.5229,42.1468,44.5229,42.9191z"></path><path fill="#7BA452" d="M44.5078,43.0558c-0.0599,0.3394-0.3694,0.599-0.6988,0.6789c-0.3594,0.0998-0.7886,0.0399-1.0781-0.2296
				c-0.125,0.0156-0.5223,0.1213-0.8985-0.0399c-0.4392,0.3494-1.0382,0.4093-1.5473,0.2696
				c-0.5291-0.1498-1.0183-0.609-0.9883-1.178c0.0199,0.559,0.5191,0.9584,1.0182,1.0582c0.5091,0.1099,1.0682-0.0199,1.4176-0.3793
				l0.0599-0.0599l0.0798,0.0399c0.4128,0.2223,0.7088,0.0992,0.9185,0.1098c0.1033,0.0646,0.3278,0.4598,0.9983,0.3295
				C44.0985,43.6049,44.418,43.3852,44.5078,43.0558z"></path><rect width=".598" height="3.366" x="4.752" y="40.066" fill="#A77A4E"></rect><polygon fill="#FFF" points="8.269 32.573 5.731 39.992 4.614 39.992 7.152 32.573" opacity=".3"></polygon><polygon fill="#FFF" points="9.038 32.573 6.5 39.992 6.075 39.992 8.613 32.573" opacity=".3"></polygon><path fill="#8EC163" d="M5.9596,38.0895c0,1.361-0.4096,2.4586-0.9011,2.4586c-0.1092,0-0.2322-0.0586-0.3277-0.161
				c-0.3413-0.3512-0.5871-1.2439-0.5871-2.2976c0-1.3611,0.4097-2.4732,0.9148-2.4732c0.0136,0,0.0273,0,0.0409,0.0146
				C5.5773,35.6747,5.9596,36.7723,5.9596,38.0895z"></path><path fill="#9CCC65" d="M5.7002,37.9431c0,1.361-0.4096,2.4586-0.9011,2.4586c-0.0273,0-0.041,0-0.0683-0.0146
				c-0.3413-0.3512-0.5871-1.2439-0.5871-2.2976c0-1.3611,0.4097-2.4732,0.9148-2.4732c0.0136,0,0.0273,0,0.0409,0.0146
				C5.4408,35.9528,5.7002,36.8748,5.7002,37.9431z"></path><rect width=".598" height="3.366" x="1.677" y="40.066" fill="#A77A4E"></rect><path fill="#8EC163" d="M2.8839,38.0895c0,1.361-0.4096,2.4586-0.9011,2.4586c-0.1092,0-0.2322-0.0586-0.3277-0.161
				c-0.3413-0.3512-0.5871-1.2439-0.5871-2.2976c0-1.3611,0.4097-2.4732,0.9148-2.4732c0.0136,0,0.0272,0,0.0409,0.0146
				C2.5017,35.6747,2.8839,36.7723,2.8839,38.0895z"></path><path fill="#9CCC65" d="M2.6245,37.9431c0,1.361-0.4096,2.4586-0.9011,2.4586c-0.0273,0-0.041,0-0.0683-0.0146
				c-0.3413-0.3512-0.5871-1.2439-0.5871-2.2976c0-1.3611,0.4097-2.4732,0.9148-2.4732c0.0136,0,0.0272,0,0.0409,0.0146
				C2.3651,35.9528,2.6245,36.8748,2.6245,37.9431z"></path><rect width="1.1" height="4.405" x="2.964" y="39.027" fill="#A77A4E"></rect><path fill="#7BA452" d="M5.1825,36.4404c0,1.7811-0.7528,3.2175-1.6561,3.2175c-0.2008,0-0.4267-0.0767-0.6024-0.2108
				c-0.6273-0.4596-1.079-1.6279-1.079-3.0068c0-1.7812,0.7529-3.2367,1.6814-3.2367c0.025,0,0.0501,0,0.0752,0.0191
				C4.48,33.2802,5.1825,34.7166,5.1825,36.4404z"></path><path fill="#8EC163" d="M4.7057,36.2488c0,1.7811-0.7528,3.2175-1.6561,3.2175c-0.0502,0-0.0754,0-0.1256-0.0192
				c-0.6273-0.4596-1.079-1.6279-1.079-3.0068c0-1.7812,0.7529-3.2367,1.6814-3.2367c0.025,0,0.0501,0,0.0752,0.0191
				C4.229,33.6441,4.7057,34.8507,4.7057,36.2488z"></path><rect width=".598" height="3.366" x="47.73" y="40.066" fill="#A77A4E"></rect><path fill="#8EC163" d="M48.9376,38.0895c0,1.361-0.4096,2.4586-0.9011,2.4586c-0.1092,0-0.2322-0.0586-0.3277-0.161
				c-0.3413-0.3512-0.5871-1.2439-0.5871-2.2976c0-1.3611,0.4097-2.4732,0.9148-2.4732c0.0136,0,0.0272,0,0.0409,0.0146
				C48.5554,35.6747,48.9376,36.7723,48.9376,38.0895z"></path><path fill="#9CCC65" d="M48.6782,37.9431c0,1.361-0.4096,2.4586-0.9011,2.4586c-0.0273,0-0.041,0-0.0683-0.0146
				c-0.3413-0.3512-0.5871-1.2439-0.5871-2.2976c0-1.3611,0.4097-2.4732,0.9148-2.4732c0.0136,0,0.0272,0,0.0409,0.0146
				C48.4188,35.9528,48.6782,36.8748,48.6782,37.9431z"></path><rect width=".598" height="3.366" x="44.655" y="40.066" fill="#A77A4E"></rect><path fill="#8EC163" d="M45.862,38.0895c0,1.361-0.4096,2.4586-0.9011,2.4586c-0.1092,0-0.2322-0.0586-0.3277-0.161
				c-0.3413-0.3512-0.5871-1.2439-0.5871-2.2976c0-1.3611,0.4097-2.4732,0.9148-2.4732c0.0136,0,0.0273,0,0.0409,0.0146
				C45.4797,35.6747,45.862,36.7723,45.862,38.0895z"></path><path fill="#9CCC65" d="M45.6026,37.9431c0,1.361-0.4096,2.4586-0.9011,2.4586c-0.0273,0-0.041,0-0.0683-0.0146
				c-0.3413-0.3512-0.5871-1.2439-0.5871-2.2976c0-1.3611,0.4097-2.4732,0.9148-2.4732c0.0136,0,0.0273,0,0.0409,0.0146
				C45.3431,35.9528,45.6026,36.8748,45.6026,37.9431z"></path><rect width="1.1" height="4.405" x="45.942" y="39.027" fill="#A77A4E"></rect><path fill="#7BA452" d="M48.1606,36.4404c0,1.7811-0.7528,3.2175-1.6561,3.2175c-0.2008,0-0.4267-0.0767-0.6024-0.2108
				c-0.6273-0.4596-1.079-1.6279-1.079-3.0068c0-1.7812,0.7529-3.2367,1.6814-3.2367c0.025,0,0.0501,0,0.0752,0.0191
				C47.458,33.2802,48.1606,34.7166,48.1606,36.4404z"></path><path fill="#8EC163" d="M47.6838,36.2488c0,1.7811-0.7528,3.2175-1.6561,3.2175c-0.0502,0-0.0754,0-0.1256-0.0192
				c-0.6273-0.4596-1.079-1.6279-1.079-3.0068c0-1.7812,0.7529-3.2367,1.6814-3.2367c0.025,0,0.0501,0,0.0752,0.0191
				C47.207,33.6441,47.6838,34.8507,47.6838,36.2488z"></path><path fill="#7BA452" d="M35.4934,42.091c0,0.6004-0.1958,1.0871-0.4361,1.0871c-0.0297,0-0.0593-0.008-0.0861-0.0227
				c-0.1988-0.1003-0.3501-0.5389-0.3501-1.0644c0-0.5255,0.1513-0.9641,0.3501-1.0643c0.0267-0.0147,0.0564-0.0227,0.0861-0.0227
				C35.2976,41.0039,35.4934,41.4906,35.4934,42.091z"></path><path fill="#8EC163" d="M35.3154,42.091c0,0.5255-0.1483,0.9641-0.3442,1.0644c-0.1988-0.1003-0.3501-0.5389-0.3501-1.0644
				c0-0.5255,0.1513-0.9641,0.3501-1.0643C35.1671,41.1269,35.3154,41.5655,35.3154,42.091z"></path><polygon fill="url(#a)" points="35.479 43.435 34.635 43.435 34.534 42.868 35.581 42.868"></polygon><path fill="#7BA452" d="M37.3736,42.091c0,0.6004-0.1958,1.0871-0.4361,1.0871c-0.0297,0-0.0593-0.008-0.086-0.0227
				c-0.1988-0.1003-0.3501-0.5389-0.3501-1.0644c0-0.5255,0.1513-0.9641,0.3501-1.0643c0.0267-0.0147,0.0564-0.0227,0.086-0.0227
				C37.1778,41.0039,37.3736,41.4906,37.3736,42.091z"></path><path fill="#8EC163" d="M37.1956,42.091c0,0.5255-0.1483,0.9641-0.3442,1.0644c-0.1988-0.1003-0.3501-0.5389-0.3501-1.0644
				c0-0.5255,0.1513-0.9641,0.3501-1.0643C37.0473,41.1269,37.1956,41.5655,37.1956,42.091z"></path><polygon fill="url(#a)" points="37.36 43.435 36.515 43.435 36.414 42.868 37.461 42.868"></polygon><path fill="#7BA452" d="M13.4612,42.091c0,0.6004-0.1958,1.0871-0.4361,1.0871c-0.0297,0-0.0593-0.008-0.0861-0.0227
				c-0.1988-0.1003-0.3501-0.5389-0.3501-1.0644c0-0.5255,0.1513-0.9641,0.3501-1.0643c0.0267-0.0147,0.0564-0.0227,0.0861-0.0227
				C13.2654,41.0039,13.4612,41.4906,13.4612,42.091z"></path><path fill="#8EC163" d="M13.2832,42.091c0,0.5255-0.1483,0.9641-0.3442,1.0644c-0.1988-0.1003-0.3501-0.5389-0.3501-1.0644
				c0-0.5255,0.1513-0.9641,0.3501-1.0643C13.1348,41.1269,13.2832,41.5655,13.2832,42.091z"></path><polygon fill="url(#a)" points="13.447 43.435 12.603 43.435 12.502 42.868 13.548 42.868"></polygon><path fill="#7BA452" d="M15.3414,42.091c0,0.6004-0.1958,1.0871-0.4361,1.0871c-0.0297,0-0.0593-0.008-0.0861-0.0227
				c-0.1988-0.1003-0.3501-0.5389-0.3501-1.0644c0-0.5255,0.1513-0.9641,0.3501-1.0643c0.0267-0.0147,0.0564-0.0227,0.0861-0.0227
				C15.1456,41.0039,15.3414,41.4906,15.3414,42.091z"></path><path fill="#8EC163" d="M15.1634,42.091c0,0.5255-0.1483,0.9641-0.3442,1.0644c-0.1988-0.1003-0.3501-0.5389-0.3501-1.0644
				c0-0.5255,0.1513-0.9641,0.3501-1.0643C15.015,41.1269,15.1634,41.5655,15.1634,42.091z"></path><polygon fill="url(#a)" points="15.327 43.435 14.483 43.435 14.382 42.868 15.428 42.868"></polygon><polygon fill="#FFF" points="44.728 21.095 42.144 28.514 41.008 28.514 43.591 21.095" opacity=".3"></polygon><polygon fill="#FFF" points="44.728 32.573 42.144 39.992 41.008 39.992 43.591 32.573" opacity=".3"></polygon><polygon fill="#FFF" points="45.511 21.095 42.928 28.514 42.495 28.514 45.078 21.095" opacity=".3"></polygon><polygon fill="#FFF" points="45.511 32.573 42.928 39.992 42.495 39.992 45.078 32.573" opacity=".3"></polygon><polygon fill="#FFF" points="38.106 21.095 35.568 28.514 34.452 28.514 36.989 21.095" opacity=".3"></polygon><polygon fill="#FFF" points="38.876 21.095 36.338 28.514 35.913 28.514 38.45 21.095" opacity=".3"></polygon><polygon fill="#FFF" points="38.106 32.573 35.568 39.992 34.452 39.992 36.989 32.573" opacity=".3"></polygon><polygon fill="#FFF" points="38.876 32.573 36.338 39.992 35.913 39.992 38.45 32.573" opacity=".3"></polygon><polygon fill="#FFF" points="14.957 32.573 12.419 39.992 11.303 39.992 13.841 32.573" opacity=".3"></polygon><polygon fill="#FFF" points="15.726 32.573 13.189 39.992 12.764 39.992 15.301 32.573" opacity=".3"></polygon><polygon fill="#FFF" points="8.269 21.095 5.731 28.514 4.614 28.514 7.152 21.095" opacity=".3"></polygon><polygon fill="#FFF" points="9.038 21.095 6.5 28.514 6.075 28.514 8.613 21.095" opacity=".3"></polygon><polygon fill="#FFF" points="14.957 21.095 12.419 28.514 11.303 28.514 13.841 21.095" opacity=".3"></polygon><polygon fill="#FFF" points="15.726 21.095 13.189 28.514 12.764 28.514 15.301 21.095" opacity=".3"></polygon><polygon fill="#FFF" points="28.466 21.095 27.503 28.514 26.387 28.514 27.349 21.095" opacity=".3"></polygon><polygon fill="#FFF" points="29.235 21.095 28.273 28.514 27.848 28.514 28.81 21.095" opacity=".3"></polygon><polygon fill="#FFF" points="23.088 21.095 22.126 28.514 21.009 28.514 21.971 21.095" opacity=".3"></polygon><polygon fill="#FFF" points="23.858 21.095 22.895 28.514 22.47 28.514 23.432 21.095" opacity=".3"></polygon><path fill="#FFF" d="M27.0341,38.954c0,0.21-0.17,0.39-0.39,0.39c-0.21,0-0.38-0.18-0.38-0.39c0-0.21,0.17-0.3799,0.38-0.3799
				C26.8641,38.5741,27.0341,38.7441,27.0341,38.954z"></path><polygon fill="#A77A4E" points="34.333 19.524 15.655 19.524 24.994 10.28"></polygon></svg>